<?xml version="1.0" encoding="utf-8"?>
<!-- Generator: Adobe Illustrator 24.3.0, SVG Export Plug-In . SVG Version: 6.00 Build 0)  -->
<svg version="1.1" id="Layer_1" xmlns="http://www.w3.org/2000/svg" xmlns:xlink="http://www.w3.org/1999/xlink" x="0px" y="0px"
	 viewBox="0 0 1080 1080" style="enable-background:new 0 0 1080 1080;" xml:space="preserve">
<style type="text/css">
	.st0{fill:#1A1A1A;}
	.st1{fill:#1677BC;}
</style>
<g>
	<g>
		<path class="st0" d="M218.86,616.26v15.5l-12.36-15.5h-2.67v21.8h3.52v-15.39l12.35,15.39h2.65v-21.8H218.86z"/>
		<path class="st0" d="M245.16,616.26h-3.8l-9.78,21.8h3.71l2.05-4.58h11.81l2.08,4.58h3.71L245.16,616.26z M238.65,630.3
			l4.62-10.36l4.61,10.36H238.65z"/>
		<path class="st0" d="M260.01,616.26v3.14h7.16v18.66h3.51V619.4h7.13v-3.14H260.01z"/>
		<path class="st0" d="M287.31,616.26v21.8h3.45v-21.8H287.31z"/>
		<path class="st0" d="M312.34,615.86c-6.57,0-11.21,4.79-11.21,11.43c0,5.73,3.58,11.24,11.15,11.24c7.56,0,11.14-5.39,11.14-11.28
			C323.43,621.36,319.79,615.89,312.34,615.86z M312.28,635.32c-5.39,0-7.63-4.14-7.69-8c0-4.76,2.7-8.28,7.75-8.28
			c5.33,0.1,7.63,4.26,7.63,8.28C319.97,631.48,317.7,635.32,312.28,635.32z"/>
		<path class="st0" d="M348.82,616.26v15.5l-12.35-15.5h-2.68v21.8h3.52v-15.39l12.36,15.39h2.64v-21.8H348.82z"/>
		<path class="st0" d="M390.26,616.26l-5.42,16.78l-5.76-16.78h-2.24l-5.64,16.78l-5.54-16.78h-3.89l7.91,21.83h3.05l2.86-7.66
			l2.4-7.35l2.4,7.32l2.89,7.69h3.08l7.79-21.83H390.26z"/>
		<path class="st0" d="M403.68,616.26v21.8h3.45v-21.8H403.68z"/>
		<path class="st0" d="M427.09,616.26h-8.24v21.8h8.24c7.63,0,11.06-5.57,10.93-11.08C437.93,621.59,434.53,616.26,427.09,616.26z
			 M427.09,634.69h-4.79v-15.1h4.79c5.14,0,7.38,3.68,7.47,7.36C434.66,630.77,432.42,634.69,427.09,634.69z"/>
		<path class="st0" d="M451.9,634.63v-5.85h12.02v-3.24H451.9v-5.88h12.52v-3.4h-16.01v21.8h16.1v-3.42H451.9z"/>
		<path class="st0" d="M499.34,616.26h-3.8l-9.78,21.8h3.71l2.05-4.58h11.81l2.09,4.58h3.7L499.34,616.26z M492.83,630.3l4.62-10.36
			l4.61,10.36H492.83z"/>
		<path class="st0" d="M532.25,616.29v12.73c0,4.15-2.56,6.42-6.04,6.23c-3.24-0.13-5.54-2.27-5.54-6.23v-12.73h-3.46v12.73
			c0,6.2,4.15,9.31,9.01,9.44c5.26,0.19,9.49-3.02,9.49-9.44v-12.73H532.25z"/>
		<path class="st0" d="M544.92,616.26v3.14h7.16v18.66h3.51V619.4h7.13v-3.14H544.92z"/>
		<path class="st0" d="M581.47,615.86c-6.58,0-11.21,4.79-11.21,11.43c0,5.73,3.58,11.24,11.14,11.24c7.57,0,11.15-5.39,11.15-11.28
			C592.55,621.36,588.91,615.89,581.47,615.86z M581.4,635.32c-5.39,0-7.62-4.14-7.69-8c0-4.76,2.71-8.28,7.76-8.28
			c5.32,0.1,7.63,4.26,7.63,8.28C589.1,631.48,586.83,635.32,581.4,635.32z"/>
		<path class="st0" d="M613.81,616.26v3.14h7.16v18.66h3.52V619.4h7.13v-3.14H613.81z"/>
		<path class="st0" d="M659.55,637.43l-6.51-7.26c4.29-0.61,5.91-3.67,5.91-6.78c0-3.68-2.64-7.13-7.69-7.13
			c-3.4,0-6.76-0.03-10.16-0.03v21.83h3.49v-7.53h4.61l6.64,7.53h4.08L659.55,637.43z M644.6,627.34v-7.9h6.66
			c2.86,0,4.14,2.05,4.14,4.01c0,2.06-1.28,3.89-4.17,3.89H644.6z"/>
		<path class="st0" d="M680.9,616.26h-3.8l-9.78,21.8h3.71l2.05-4.58h11.81l2.08,4.58h3.71L680.9,616.26z M674.39,630.3l4.61-10.36
			l4.62,10.36H674.39z"/>
		<path class="st0" d="M714.96,616.26v15.5l-12.36-15.5h-2.68v21.8h3.52v-15.39l12.36,15.39h2.64v-21.8H714.96z"/>
		<path class="st0" d="M738.02,625.07c-2.86-0.4-5.29-1-5.29-3.11c0-2.09,2.12-3.3,5.04-3.3c2.27,0.03,4.36,0.93,5.39,2.43
			l2.64-1.78c-1.83-2.93-4.98-3.68-8.13-3.68c-3.92,0-8.43,1.75-8.4,6.26c0,4.66,4.11,5.76,8.44,6.35c3.04,0.4,5.57,1.21,5.57,3.58
			c0,2.73-2.9,3.61-5.51,3.61c-2.53,0-5.23-0.94-6.79-3.58l-2.61,1.74c1.99,3.68,5.2,4.96,9.38,4.96c4.55,0,9-1.84,9.03-6.72
			C746.77,626.94,742.51,625.69,738.02,625.07z"/>
		<path class="st0" d="M767.01,616.23c-3.34,0-6.76,0.03-10.09,0.03v21.8h3.48v-6.69h6.61C777.44,631.3,777.41,616.23,767.01,616.23
			z M767.01,628.15h-6.61v-8.71h6.61C772.74,619.44,772.76,628.15,767.01,628.15z"/>
		<path class="st0" d="M794.52,615.86c-6.57,0-11.21,4.79-11.21,11.43c0,5.73,3.58,11.24,11.15,11.24c7.56,0,11.14-5.39,11.14-11.28
			C805.61,621.36,801.97,615.89,794.52,615.86z M794.46,635.32c-5.39,0-7.63-4.14-7.69-8c0-4.76,2.7-8.28,7.75-8.28
			c5.33,0.1,7.63,4.26,7.63,8.28C802.15,631.48,799.88,635.32,794.46,635.32z"/>
		<path class="st0" d="M834.4,637.43l-6.51-7.26c4.3-0.61,5.92-3.67,5.92-6.78c0-3.68-2.65-7.13-7.69-7.13
			c-3.4,0-6.76-0.03-10.16-0.03v21.83h3.49v-7.53h4.61l6.64,7.53h4.08L834.4,637.43z M819.46,627.34v-7.9h6.66
			c2.86,0,4.14,2.05,4.14,4.01c0,2.06-1.28,3.89-4.18,3.89H819.46z"/>
		<path class="st0" d="M842.06,616.26v3.14h7.16v18.66h3.51V619.4h7.13v-3.14H842.06z"/>
	</g>
	<g>
		<rect x="203.82" y="602.86" class="st0" width="656.05" height="3.25"/>
	</g>
	<g>
		<path class="st1" d="M244.6,467.39h81.56v25.95H244.6c-5.44,0-8.16,2.88-8.16,8.65v8.65c0,5.77,2.72,8.65,8.16,8.65h16.31v25.95
			H244.6c-27.19,0-40.78-11.53-40.78-34.6v-8.65C203.82,478.92,217.41,467.39,244.6,467.39z M285.38,588.48h-81.56v-25.95h81.56
			c5.44,0,8.16-2.88,8.16-8.65c0-5.76-2.72-8.65-8.16-8.65h-16.31v-25.95h16.31c27.19,0,40.78,11.53,40.78,34.6
			C326.16,576.95,312.56,588.48,285.38,588.48z"/>
		<path class="st1" d="M342.47,467.39h32.62v121.09h-32.62V467.39z M432.18,545.23h-32.62l-16.31-25.95h48.93v-51.89h32.62v121.09
			h-32.62V545.23z"/>
		<path class="st1" d="M521.4,534.51l-49.75-67.12h42.41l44.86,60.54l-4.89,6.57v53.97H521.4V534.51z M543.02,492.13l18.35-24.74
			h42.41l-39.55,53.36L543.02,492.13z"/>
		<path class="st1" d="M696.75,493.34h-81.56l-16.31-25.95h97.87c27.19,0,40.78,11.53,40.78,34.6v8.65
			c0,23.06-13.59,34.6-40.78,34.6h-40.78v-25.95h40.78c5.44,0,8.16-2.88,8.16-8.65v-8.65C704.91,496.22,702.19,493.34,696.75,493.34
			z M647.82,588.48h-32.62v-86.49h32.62V588.48z"/>
		<path class="st1" d="M753.84,441.45l122.34,129.73v43.25L753.84,484.69V441.45z M786.47,531.4v57.08h-32.62V496.8L786.47,531.4z
			 M843.56,524.48v-57.08h32.62v91.68L843.56,524.48z"/>
	</g>
</g>
</svg>
